<svg width="52" height="52" viewBox="0 0 52 52" fill="none" xmlns="http://www.w3.org/2000/svg">
<path d="M41.3499 50.05C39.1499 50.7 36.5499 51 33.4999 51H18.4999C15.4499 51 12.8499 50.7 10.6499 50.05C11.1999 43.55 17.8749 38.4249 25.9999 38.4249C34.1249 38.4249 40.7999 43.55 41.3499 50.05Z" fill="#127664" stroke="white" stroke-width="2" stroke-linecap="round" stroke-linejoin="round"/>
<path d="M33.5 1H18.5C6 1 1 6 1 18.5V33.5C1 42.95 3.85 48.125 10.65 50.05C11.2 43.55 17.875 38.4249 26 38.4249C34.125 38.4249 40.8 43.55 41.35 50.05C48.15 48.125 51 42.95 51 33.5V18.5C51 6 46 1 33.5 1ZM26 31.425C21.05 31.425 17.05 27.4 17.05 22.45C17.05 17.5 21.05 13.5 26 13.5C30.95 13.5 34.95 17.5 34.95 22.45C34.95 27.4 30.95 31.425 26 31.425Z" fill="#127664" stroke="white" stroke-width="2" stroke-linecap="round" stroke-linejoin="round"/>
<path d="M34.9499 22.45C34.9499 27.4 30.9499 31.425 25.9999 31.425C21.0499 31.425 17.0499 27.4 17.0499 22.45C17.0499 17.5 21.0499 13.5 25.9999 13.5C30.9499 13.5 34.9499 17.5 34.9499 22.45Z" fill="#127664" stroke="white" stroke-width="2" stroke-linecap="round" stroke-linejoin="round"/>
</svg>
